<?xml version="1.0" standalone="no"?>
<!DOCTYPE svg PUBLIC "-//W3C//DTD SVG 20010904//EN"
 "http://www.w3.org/TR/2001/REC-SVG-20010904/DTD/svg10.dtd">
<svg version="1.0" xmlns="http://www.w3.org/2000/svg"
 width="518.000000pt" height="730.000000pt" viewBox="0 0 518.000000 730.000000"
 preserveAspectRatio="xMidYMid meet">

<g transform="translate(0.000000,730.000000) scale(0.100000,-0.100000)"
fill="#000000" stroke="none">
<path d="M2322 7276 c-64 -35 -78 -116 -36 -212 l25 -59 -41 48 c-50 57 -86
77 -138 77 -59 0 -92 -30 -92 -84 0 -28 7 -52 20 -69 11 -14 20 -28 20 -31 0
-3 -16 -13 -35 -22 -112 -53 -61 -194 70 -194 28 0 69 9 94 20 l44 21 -51 -55
c-56 -59 -68 -88 -58 -142 5 -25 16 -41 39 -54 43 -26 67 -25 112 5 20 15 38
25 39 23 2 -2 9 -18 16 -36 34 -86 140 -80 186 10 20 38 17 81 -7 139 -12 27
-20 51 -18 53 2 2 22 -17 44 -42 36 -42 40 -51 39 -98 0 -29 4 -50 8 -48 4 3
8 18 8 35 0 16 5 29 11 29 5 0 7 -6 3 -12 -4 -7 2 -5 14 6 15 13 30 17 51 13
25 -5 29 -4 24 10 -4 10 -2 14 4 10 11 -7 53 28 53 44 0 6 4 8 9 4 6 -3 9 11
8 34 -1 27 -6 42 -17 45 -12 3 -11 4 3 5 9 0 17 6 17 12 0 6 -7 9 -15 6 -8 -4
-17 -2 -20 3 -4 6 -1 10 4 10 6 0 11 5 11 11 0 6 -10 8 -22 5 -15 -4 -13 -1 6
8 16 7 37 24 48 37 l19 24 -12 -25 -12 -25 27 24 c26 25 34 37 16 26 -6 -3
-10 4 -10 17 -1 35 -31 89 -63 112 -40 30 -108 27 -174 -7 -71 -36 -74 -34
-15 12 29 24 59 58 72 86 20 41 21 51 11 86 -16 53 -59 76 -111 60 -21 -6 -43
-18 -50 -26 -17 -20 -27 -19 -35 5 -4 11 -18 34 -32 50 -27 33 -70 39 -111 16z
m318 -682 c0 -2 -9 0 -20 6 -11 6 -20 13 -20 16 0 2 9 0 20 -6 11 -6 20 -13
20 -16z"/>
<path d="M2841 6837 c-8 -10 -7 -14 4 -14 8 0 15 6 15 14 0 7 -2 13 -4 13 -2
0 -9 -6 -15 -13z"/>
<path d="M2886 6775 c8 -37 14 -45 14 -19 0 10 -5 26 -10 34 -8 11 -9 7 -4
-15z"/>
<path d="M2900 6710 c0 -5 5 -10 10 -10 6 0 10 -7 10 -17 0 -9 3 -14 6 -10 8
8 -5 47 -17 47 -5 0 -9 -4 -9 -10z"/>
<path d="M2929 6623 c-3 -18 -3 -48 0 -65 l5 -33 7 33 c3 17 3 47 0 65 l-7 32
-5 -32z"/>
<path d="M2758 6618 c-10 -10 -14 -18 -9 -18 10 0 36 29 30 34 -2 1 -12 -6
-21 -16z"/>
<path d="M2902 6605 c0 -16 2 -22 5 -12 2 9 2 23 0 30 -3 6 -5 -1 -5 -18z"/>
<path d="M2668 6583 c7 -3 16 -2 19 1 4 3 -2 6 -13 5 -11 0 -14 -3 -6 -6z"/>
<path d="M2616 6531 c-4 -7 -5 -15 -2 -18 9 -9 19 4 14 18 -4 11 -6 11 -12 0z"/>
<path d="M2590 6507 c0 -1 -4 -18 -10 -37 -9 -32 -8 -33 5 -16 14 19 21 56 10
56 -3 0 -5 -1 -5 -3z"/>
<path d="M2953 6450 c0 -30 2 -43 4 -27 2 15 2 39 0 55 -2 15 -4 2 -4 -28z"/>
<path d="M2546 6383 c-4 -9 -3 -20 2 -25 6 -6 10 1 10 16 0 30 -3 32 -12 9z"/>
<path d="M2927 6349 c-10 -35 -7 -58 4 -29 6 17 7 1 5 -50 -3 -46 -1 -67 4
-55 11 25 11 113 1 139 -7 18 -8 18 -14 -5z"/>
<path d="M2530 6338 c0 -9 -6 -19 -12 -21 -10 -4 -10 -6 0 -6 14 -1 28 26 18
36 -3 4 -6 -1 -6 -9z"/>
<path d="M2535 6300 c-4 -6 -11 -8 -16 -4 -5 3 -26 -9 -47 -28 -20 -18 -52
-40 -70 -47 -24 -10 -30 -16 -20 -22 7 -5 18 -9 23 -9 6 0 3 5 -5 10 -12 8
-11 10 8 10 12 0 22 5 22 11 0 6 8 8 19 4 11 -3 22 -1 26 4 4 7 -1 8 -12 4
-14 -5 -13 -1 6 20 17 19 28 24 36 17 12 -10 21 -4 39 28 9 14 0 17 -9 2z"/>
<path d="M2286 6175 c-32 -13 -65 -21 -75 -19 -9 3 -3 -2 12 -11 22 -13 34
-14 55 -6 26 10 25 10 -8 6 l-35 -5 33 15 c17 8 47 21 65 29 54 25 16 17 -47
-9z"/>
<path d="M2450 6196 c0 -2 7 -7 16 -10 8 -3 12 -2 9 4 -6 10 -25 14 -25 6z"/>
<path d="M3932 6180 c-50 -31 -76 -97 -75 -196 l0 -80 -106 47 c-312 139 -496
146 -596 23 -120 -146 -71 -286 143 -407 29 -16 52 -31 50 -32 -2 -2 -52 -10
-113 -19 -132 -20 -220 -57 -262 -112 -23 -31 -28 -49 -31 -109 -9 -176 73
-300 242 -366 136 -53 292 -56 514 -11 50 11 92 16 92 11 0 -4 -27 -79 -61
-166 -95 -247 -168 -511 -228 -813 -25 -126 -61 -370 -61 -411 0 -28 1 -29 54
-29 30 0 57 4 60 9 4 5 13 75 21 156 31 309 76 600 121 785 29 115 111 372
140 435 l19 40 2 -50 c9 -166 25 -324 39 -377 35 -138 109 -234 219 -285 51
-23 73 -27 150 -27 102 -1 165 21 222 76 57 55 76 117 75 246 0 61 2 112 4
112 2 0 29 -20 58 -44 56 -46 147 -86 194 -86 82 0 160 54 188 130 9 25 19 90
21 147 3 57 9 100 14 97 14 -9 78 26 104 58 55 66 14 181 -93 260 -31 23 -58
43 -59 43 -2 1 4 23 13 49 14 41 15 57 5 101 -30 136 -150 212 -362 231 l-76
7 -7 76 c-15 179 -113 310 -233 311 -35 0 -88 -38 -98 -70 -10 -31 -19 -24
-55 43 -69 129 -110 179 -167 203 -41 18 -42 18 -81 -6z"/>
<path d="M2929 6152 c5 -34 6 -35 9 -8 2 16 0 32 -5 37 -5 5 -7 -7 -4 -29z"/>
<path d="M1790 6141 c-11 -7 6 -10 60 -9 41 1 123 0 182 -3 58 -2 104 0 101 4
-3 5 -39 8 -81 7 -43 -1 -115 1 -162 5 -53 4 -91 2 -100 -4z"/>
<path d="M2158 6143 c6 -2 18 -2 25 0 6 3 1 5 -13 5 -14 0 -19 -2 -12 -5z"/>
<path d="M1718 6133 c7 -3 16 -2 19 1 4 3 -2 6 -13 5 -11 0 -14 -3 -6 -6z"/>
<path d="M2157 6119 c7 -7 15 -10 18 -7 3 3 -2 9 -12 12 -14 6 -15 5 -6 -5z"/>
<path d="M1613 6099 c-24 -12 -40 -26 -36 -32 4 -6 10 -5 17 4 15 20 65 41 78
33 7 -4 8 -2 4 4 -10 16 -14 15 -63 -9z"/>
<path d="M2258 6113 c6 -2 18 -2 25 0 6 3 1 5 -13 5 -14 0 -19 -2 -12 -5z"/>
<path d="M2915 6090 c3 -5 8 -10 11 -10 2 0 4 5 4 10 0 6 -5 10 -11 10 -5 0
-7 -4 -4 -10z"/>
<path d="M1546 6062 c-8 -14 8 -28 32 -28 12 0 22 1 22 2 0 8 -50 32 -54 26z"/>
<path d="M1501 6029 c-28 -23 -23 -24 14 -5 14 8 23 16 18 19 -4 3 -19 -3 -32
-14z"/>
<path d="M2922 6000 c0 -14 2 -19 5 -12 2 6 2 18 0 25 -3 6 -5 1 -5 -13z"/>
<path d="M1410 5969 c-49 -27 -51 -31 -3 -12 11 4 14 3 9 -5 -5 -8 -2 -10 9
-5 13 5 14 7 3 14 -10 7 -10 9 2 9 8 0 24 7 34 15 32 24 5 16 -54 -16z"/>
<path d="M1480 5980 l-25 -21 28 12 c15 7 27 16 27 21 0 11 -1 10 -30 -12z"/>
<path d="M2901 5964 c0 -11 3 -14 6 -6 3 7 2 16 -1 19 -3 4 -6 -2 -5 -13z"/>
<path d="M1330 5936 c0 -2 7 -7 16 -10 8 -3 12 -2 9 4 -6 10 -25 14 -25 6z"/>
<path d="M1300 5920 c-13 -8 -12 -10 3 -10 9 0 17 5 17 10 0 12 -1 12 -20 0z"/>
<path d="M1258 5903 c7 -3 16 -2 19 1 4 3 -2 6 -13 5 -11 0 -14 -3 -6 -6z"/>
<path d="M2912 5880 c0 -19 4 -48 8 -65 l8 -30 0 35 c0 19 -4 49 -8 65 l-8 30
0 -35z"/>
<path d="M1225 5890 c-4 -6 3 -10 14 -10 25 0 27 6 6 13 -8 4 -17 2 -20 -3z"/>
<path d="M1160 5855 c-19 -14 -27 -25 -19 -25 16 1 64 38 57 45 -2 3 -20 -6
-38 -20z"/>
<path d="M1328 5873 c7 -3 16 -2 19 1 4 3 -2 6 -13 5 -11 0 -14 -3 -6 -6z"/>
<path d="M1078 5803 c-37 -31 -57 -54 -58 -66 0 -5 12 5 26 22 15 19 33 30 46
28 14 -1 22 5 24 21 5 28 3 28 -38 -5z m27 -3 c3 -5 1 -10 -4 -10 -6 0 -11 5
-11 10 0 6 2 10 4 10 3 0 8 -4 11 -10z"/>
<path d="M2931 5740 c30 -56 44 -61 17 -6 -12 25 -26 46 -30 46 -4 0 2 -18 13
-40z"/>
<path d="M987 5717 c-3 -8 5 -12 24 -12 15 -1 26 2 23 5 -3 3 -9 5 -12 5 -4 0
-12 4 -18 8 -7 4 -14 1 -17 -6z"/>
<path d="M934 5658 c-10 -12 -14 -18 -7 -15 6 4 13 4 16 0 2 -5 2 -3 1 4 -2 6
2 14 9 16 7 2 9 7 6 11 -3 3 -14 -4 -25 -16z"/>
<path d="M2970 5673 c0 -7 5 -13 12 -13 6 0 3 -10 -8 -22 -10 -13 -15 -20 -10
-16 5 4 16 2 24 -5 13 -9 14 -9 8 1 -4 6 -3 12 3 12 5 0 12 -6 14 -12 4 -10 6
-10 6 -1 1 7 -10 25 -24 40 -13 15 -25 22 -25 16z"/>
<path d="M893 5598 c-23 -30 -24 -41 -2 -21 12 12 20 25 17 28 -3 3 -10 0 -15
-7z"/>
<path d="M2971 5584 c0 -11 3 -14 6 -6 3 7 2 16 -1 19 -3 4 -6 -2 -5 -13z"/>
<path d="M3020 5591 c0 -6 4 -13 10 -16 6 -3 7 1 4 9 -7 18 -14 21 -14 7z"/>
<path d="M855 5540 c-3 -5 -1 -10 4 -10 6 0 11 5 11 10 0 6 -2 10 -4 10 -3 0
-8 -4 -11 -10z"/>
<path d="M3018 5533 c7 -3 16 -2 19 1 4 3 -2 6 -13 5 -11 0 -14 -3 -6 -6z"/>
<path d="M1618 5513 c12 -2 32 -2 45 0 12 2 2 4 -23 4 -25 0 -35 -2 -22 -4z"/>
<path d="M1691 5516 c2 -2 27 -6 54 -9 32 -4 43 -3 30 3 -19 8 -93 14 -84 6z"/>
<path d="M1838 5513 c12 -2 30 -2 40 0 9 3 -1 5 -23 4 -22 0 -30 -2 -17 -4z"/>
<path d="M837 5496 c-4 -10 -5 -22 -1 -27 3 -5 1 -9 -4 -9 -5 0 -12 -10 -15
-22 -6 -23 -6 -23 12 1 11 14 16 32 13 40 -3 11 -2 13 6 6 5 -5 12 -19 15 -30
5 -20 5 -19 6 1 0 11 -5 28 -12 38 -13 18 -14 18 -20 2z"/>
<path d="M1503 5503 c9 -2 23 -2 30 0 6 3 -1 5 -18 5 -16 0 -22 -2 -12 -5z"/>
<path d="M1430 5490 c-8 -6 -28 -7 -44 -4 -16 4 -26 2 -23 -3 8 -12 -36 -11
-44 1 -4 5 -17 1 -30 -8 -13 -9 -35 -16 -49 -16 -14 -1 -36 -7 -50 -15 -33
-19 -46 -19 -30 0 12 15 0 22 -14 8 -4 -4 -26 -13 -49 -20 -32 -9 -44 -9 -56
0 -12 9 -13 9 -7 0 5 -9 1 -13 -13 -13 -25 0 -39 -20 -14 -21 16 0 16 -1 -2
-8 -11 -5 -21 -4 -23 0 -2 5 -8 9 -14 9 -6 0 -8 -7 -4 -15 4 -11 -2 -15 -25
-15 -17 0 -28 -4 -25 -9 3 -4 -6 -7 -19 -5 -14 1 -23 -1 -20 -5 4 -7 -76 -58
-82 -53 -8 6 -23 1 -19 -7 9 -13 -85 -54 -96 -43 -7 7 -4 10 8 9 11 -1 18 4
16 12 -2 9 3 11 13 7 9 -3 13 -2 10 4 -9 14 -16 12 -45 -9 -20 -16 -22 -22
-12 -34 11 -12 5 -20 -38 -46 -28 -17 -49 -35 -46 -40 3 -5 -3 -16 -13 -25
-13 -11 -21 -14 -26 -7 -8 14 2 31 18 27 7 -1 8 -1 4 2 -4 2 0 10 10 18 10 7
14 14 9 14 -16 0 -96 -92 -89 -103 4 -6 9 -2 14 10 9 23 29 40 29 24 0 -18 -5
-26 -12 -24 -5 2 -8 -2 -8 -9 0 -19 -31 -47 -46 -41 -13 5 -19 -8 -15 -31 1
-4 -4 -15 -11 -24 -8 -10 -9 -13 -1 -9 7 5 9 0 6 -14 -4 -16 -8 -18 -14 -7 -6
9 -9 6 -9 -12 -1 -54 -5 -80 -14 -80 -4 0 -6 -11 -4 -25 3 -13 1 -22 -4 -19
-5 3 -6 -6 -2 -20 3 -14 2 -26 -3 -26 -10 0 -33 -78 -33 -113 0 -16 -3 -18 -9
-8 -7 11 -10 9 -16 -8 -3 -11 -4 -25 0 -31 4 -6 -1 -7 -12 -3 -15 6 -16 4 -5
-9 10 -13 10 -18 1 -24 -8 -4 -9 -3 -5 4 4 7 2 12 -5 12 -6 0 -9 -8 -6 -19 3
-13 -9 -34 -38 -65 -23 -25 -39 -49 -36 -53 3 -3 0 -3 -6 1 -8 4 -13 1 -13 -7
0 -9 -20 -27 -44 -41 -25 -14 -59 -46 -77 -71 -18 -25 -37 -45 -42 -45 -6 0
-6 5 0 13 12 15 24 47 18 47 -13 0 -31 -54 -37 -107 -1 -7 -4 -13 -8 -13 -9 0
-14 -49 -12 -128 1 -80 27 -134 100 -214 67 -72 141 -124 264 -183 110 -54
138 -57 138 -17 0 16 7 52 16 81 l15 53 -45 48 c-53 57 -61 89 -52 205 6 74 5
86 -15 119 -19 33 -21 47 -16 113 3 46 1 85 -5 99 -14 31 -5 40 26 26 31 -14
131 21 153 54 13 20 12 26 -4 54 -10 18 -25 44 -33 59 -8 14 -16 61 -18 104
-5 86 8 129 58 202 37 54 156 145 241 185 163 76 407 87 692 33 l87 -17 30 36
c82 100 259 104 420 10 24 -14 61 -29 81 -32 36 -7 37 -6 49 32 9 31 9 43 -1
54 -20 24 -6 24 46 0 55 -25 111 -82 121 -122 4 -14 4 -41 1 -61 l-6 -36 57 9
c31 5 82 8 113 7 91 -1 204 -60 253 -132 55 -79 53 -147 -5 -190 -73 -54 -59
-100 60 -191 44 -33 87 -70 95 -82 21 -29 20 -100 0 -141 -25 -48 -81 -114
-114 -134 -29 -17 -30 -19 -30 -101 0 -95 -19 -144 -72 -185 l-32 -25 19 -81
c16 -70 17 -88 6 -137 -7 -30 -10 -58 -7 -61 7 -7 154 14 231 33 177 44 252
138 262 330 5 75 2 96 -12 120 -16 28 -16 28 0 9 16 -18 17 -18 11 -2 -3 10
-6 23 -6 28 0 5 -7 9 -15 9 -8 0 -15 5 -15 11 0 5 4 7 10 4 7 -4 7 3 0 20 -6
15 -11 44 -12 65 -2 64 -14 64 -13 1 0 -33 3 -57 8 -54 4 2 7 -3 7 -11 0 -8
-6 -18 -12 -22 -7 -4 -10 -4 -6 1 4 4 -2 16 -13 26 -12 10 -18 22 -15 27 3 6
-2 18 -12 29 -9 10 -13 14 -9 7 5 -7 3 -15 -4 -20 -7 -4 -9 -3 -5 4 3 6 2 14
-4 17 -6 4 -8 15 -5 26 5 14 2 17 -9 13 -11 -4 -13 0 -9 14 2 11 0 23 -6 26
-7 5 -8 1 -4 -11 3 -10 3 -15 -1 -11 -4 3 -9 12 -10 20 -2 7 -6 26 -11 42 -8
31 -11 51 -15 106 -1 19 -4 29 -7 21 -5 -12 -26 32 -38 79 -2 8 -4 16 -5 18
-2 1 -3 6 -4 11 0 5 -4 13 -8 17 -13 12 -9 26 5 19 6 -4 4 0 -6 8 -16 13 -17
19 -6 39 11 21 11 22 -4 9 -15 -11 -17 -11 -17 2 0 8 6 17 13 20 9 3 8 9 -5
23 -9 10 -18 30 -20 44 -2 14 -8 24 -14 23 -6 -1 -11 6 -10 15 2 36 -14 83
-25 76 -8 -4 -9 1 -4 16 5 15 4 20 -4 16 -13 -9 -2 26 12 35 5 4 -5 11 -22 17
-21 7 -31 18 -31 31 0 11 -4 23 -10 26 -6 3 -7 -1 -4 -12 3 -10 -2 -7 -10 7
-20 33 -20 46 1 29 12 -10 10 -4 -5 18 -26 37 -28 50 -4 32 14 -11 15 -11 5 1
-16 18 -53 23 -53 8 0 -6 3 -8 7 -5 3 4 12 -1 19 -11 16 -21 17 -32 4 -32 -5
0 -10 5 -10 10 0 6 -9 19 -21 31 -11 11 -18 27 -15 35 3 8 2 13 -2 10 -4 -2
-30 18 -57 47 -28 28 -44 48 -38 44 9 -6 11 -3 7 7 -3 9 -1 16 5 16 6 0 11 5
11 12 0 6 -7 4 -18 -5 -24 -22 -38 -22 -21 0 13 15 12 15 -9 4 -18 -9 -22 -9
-20 1 2 6 -1 12 -7 13 -11 1 -95 55 -95 62 0 2 5 1 12 -3 7 -5 8 -3 4 5 -5 7
-14 10 -22 7 -8 -3 -14 1 -14 10 0 8 -4 12 -10 9 -5 -3 -20 0 -32 7 -22 13
-29 14 -56 17 -15 1 -6 21 9 21 6 0 8 -4 5 -8 -2 -4 4 -8 15 -8 24 0 24 3 -1
16 -14 8 -26 8 -41 -1 -14 -7 -19 -7 -15 -1 6 10 -51 32 -82 32 -7 0 -11 4 -8
9 4 5 -4 7 -16 3 -14 -3 -19 -2 -14 6 7 11 -21 18 -48 13 -5 -1 -4 4 3 12 10
13 5 15 -31 15 -78 1 -91 2 -102 11 -14 12 -159 21 -388 25 -93 1 -171 6 -175
9 -9 9 -15 9 -33 -3z m-193 -46 c-3 -3 -12 -4 -19 -1 -8 3 -5 6 6 6 11 1 17
-2 13 -5z m-110 -20 c-3 -3 -12 -4 -19 -1 -8 3 -5 6 6 6 11 1 17 -2 13 -5z
m1723 -528 c0 -3 -4 -8 -10 -11 -5 -3 -10 -1 -10 4 0 6 5 11 10 11 6 0 10 -2
10 -4z"/>
<path d="M2188 5433 c7 -3 16 -2 19 1 4 3 -2 6 -13 5 -11 0 -14 -3 -6 -6z"/>
<path d="M821 5394 c0 -11 3 -14 6 -6 3 7 2 16 -1 19 -3 4 -6 -2 -5 -13z"/>
<path d="M2920 5399 c0 -5 5 -7 10 -4 6 3 10 8 10 11 0 2 -4 4 -10 4 -5 0 -10
-5 -10 -11z"/>
<path d="M790 5361 c0 -6 5 -13 10 -16 6 -3 10 -11 10 -17 0 -6 -6 -6 -15 2
-13 10 -18 11 -28 1 -9 -10 -8 -11 7 -5 13 5 17 4 12 -4 -9 -15 28 -7 56 12
21 15 21 15 -8 13 -19 -1 -28 2 -26 11 1 6 -2 12 -8 12 -5 0 -10 -4 -10 -9z"/>
<path d="M2515 5270 c3 -5 16 -15 28 -21 22 -12 22 -12 3 10 -19 21 -43 30
-31 11z"/>
<path d="M633 5213 c0 -10 4 -10 16 -1 9 7 18 13 20 15 2 1 -5 1 -16 0 -11 0
-20 -7 -20 -14z"/>
<path d="M600 5205 c-10 -12 -10 -15 2 -15 8 0 15 7 15 15 0 8 -1 15 -2 15 -2
0 -8 -7 -15 -15z"/>
<path d="M2920 5155 c0 -8 2 -15 4 -15 2 0 6 7 10 15 3 8 1 15 -4 15 -6 0 -10
-7 -10 -15z"/>
<path d="M480 5054 c0 -8 5 -12 10 -9 6 4 8 11 5 16 -9 14 -15 11 -15 -7z"/>
<path d="M2861 4954 c0 -11 3 -14 6 -6 3 7 2 16 -1 19 -3 4 -6 -2 -5 -13z"/>
<path d="M3110 4931 c0 -5 5 -13 10 -16 6 -3 10 -2 10 4 0 5 -4 13 -10 16 -5
3 -10 2 -10 -4z"/>
<path d="M3132 4860 c0 -14 2 -19 5 -12 2 6 2 18 0 25 -3 6 -5 1 -5 -13z"/>
<path d="M3142 4785 c0 -16 2 -22 5 -12 2 9 2 23 0 30 -3 6 -5 -1 -5 -18z"/>
<path d="M3147 4685 c7 -49 13 -58 13 -19 0 16 -5 36 -10 44 -6 10 -7 2 -3
-25z"/>
<path d="M3129 4588 c0 -2 -2 -32 -4 -68 -3 -61 -2 -62 6 -20 5 25 6 53 3 64
-4 12 -2 16 5 12 6 -4 11 -2 11 3 0 9 -18 16 -21 9z"/>
<path d="M279 4533 l-24 -28 28 24 c15 14 27 26 27 28 0 8 -8 1 -31 -24z"/>
<path d="M215 4480 c-31 -33 -42 -62 -19 -53 7 3 12 8 11 11 -2 9 32 58 38 55
6 -4 8 7 3 13 -3 2 -17 -10 -33 -26z"/>
<path d="M2980 4485 c0 -5 5 -17 10 -25 5 -8 10 -10 10 -5 0 6 -5 17 -10 25
-5 8 -10 11 -10 5z"/>
<path d="M3111 4443 c-1 -6 -4 -20 -7 -30 -5 -17 -5 -17 6 0 6 10 9 23 6 30
-3 9 -5 9 -5 0z"/>
<path d="M146 4425 c-11 -8 -14 -15 -8 -15 20 0 26 4 28 18 3 15 3 15 -20 -3z"/>
<path d="M1105 4428 c-51 -18 -82 -46 -100 -90 -19 -49 -14 -94 16 -132 95
-120 339 -63 339 78 0 111 -135 186 -255 144z"/>
<path d="M1805 4425 c-22 -8 -55 -30 -72 -49 -28 -30 -33 -43 -33 -84 0 -95
68 -156 174 -156 110 0 186 64 186 155 0 107 -134 177 -255 134z"/>
<path d="M3093 4355 c0 -22 2 -30 4 -17 2 12 2 30 0 40 -3 9 -5 -1 -4 -23z"/>
<path d="M3037 4313 c-4 -3 -7 -11 -7 -17 0 -6 5 -5 12 2 6 6 9 14 7 17 -3 3
-9 2 -12 -2z"/>
<path d="M3101 4224 c0 -11 3 -14 6 -6 3 7 2 16 -1 19 -3 4 -6 -2 -5 -13z"/>
<path d="M1374 4020 c-26 -11 -34 -46 -34 -162 0 -106 22 -223 57 -295 49
-104 153 -153 257 -120 107 34 159 105 191 265 20 97 18 283 -3 304 -15 15
-433 23 -468 8z"/>
<path d="M2867 3325 c-10 -14 -18 -28 -19 -32 0 -5 -8 -13 -17 -20 -14 -11
-13 -19 18 -77 18 -36 48 -79 67 -96 19 -16 32 -30 29 -30 -4 0 14 -17 38 -38
75 -65 265 -185 284 -180 4 1 18 -3 30 -10 19 -11 25 -9 47 13 14 14 27 25 29
25 3 0 7 -255 10 -567 5 -576 13 -733 57 -1173 44 -442 85 -777 116 -952 13
-73 19 -88 37 -94 55 -18 143 5 175 45 16 20 11 74 -28 316 -40 246 -126 939
-145 1165 -44 532 -71 1123 -62 1318 5 93 4 124 -6 126 -37 10 -123 23 -127
19 -3 -3 -8 -48 -11 -101 -5 -84 -6 -88 -7 -31 -1 36 -7 81 -13 98 -10 28 -15
32 -38 26 -42 -10 -47 -22 -27 -59 19 -36 15 -70 -9 -80 -8 -3 -45 10 -81 29
-37 19 -70 32 -75 29 -5 -3 -8 -2 -7 3 1 4 -32 42 -73 83 -41 41 -84 91 -95
111 -19 32 -20 38 -7 62 15 30 45 35 89 15 23 -11 28 -10 40 7 21 28 14 36
-51 56 -87 27 -145 25 -168 -6z m98 6 c3 -5 2 -12 -3 -15 -5 -3 -9 1 -9 9 0
17 3 19 12 6z m58 -301 c4 0 5 5 1 12 -5 7 -3 8 5 3 9 -5 10 -10 2 -18 -8 -8
-15 -6 -26 6 -8 9 -10 12 -3 7 7 -6 16 -10 21 -10z"/>
<path d="M1832 3223 c13 -13 28 -29 34 -35 15 -17 2 -75 -30 -135 l-28 -50
-25 25 -26 26 22 17 c27 22 27 44 -1 63 -28 20 -55 20 -92 1 -32 -17 -102 -20
-111 -5 -7 12 -105 14 -106 3 0 -5 -2 -17 -4 -27 -2 -11 6 -28 18 -39 22 -18
22 -19 3 -33 -31 -22 -42 -17 -76 36 -18 28 -34 49 -35 48 -2 -2 7 -62 21
-133 30 -166 31 -287 1 -268 -5 3 -7 1 -3 -5 7 -12 -149 -342 -168 -354 -6 -4
-7 -8 -2 -8 5 0 4 -6 -2 -12 -5 -7 -27 -44 -47 -83 -62 -115 -61 -114 -69 -43
-7 71 1 235 15 291 8 30 14 37 35 37 14 0 39 -7 56 -16 42 -22 53 -8 43 53 -5
26 -10 40 -12 30 -4 -15 -13 -17 -56 -15 l-52 3 -62 -125 c-34 -69 -69 -133
-77 -143 -14 -18 -15 -18 -35 2 -26 26 -56 26 -134 0 -131 -44 -259 -133 -272
-189 -8 -34 27 -80 60 -80 30 0 43 20 21 32 -28 16 -18 45 30 86 86 73 235
133 254 102 11 -18 -12 -80 -64 -170 -79 -135 -126 -280 -126 -382 0 -29 -8
-51 -26 -75 -86 -114 -67 -236 48 -298 43 -24 57 -26 134 -23 l85 3 -6 -57
c-8 -67 -1 -95 26 -103 13 -4 19 -15 19 -35 0 -26 5 -30 37 -36 45 -8 210 2
245 15 20 8 28 19 33 51 6 33 10 40 23 34 10 -4 29 -9 43 -11 52 -9 78 56 43
106 l-17 23 52 -7 c66 -9 94 8 125 78 l23 52 11 -41 c7 -22 23 -51 38 -65 22
-20 35 -24 84 -22 l58 1 -14 -26 c-19 -37 -18 -66 4 -85 28 -26 57 -20 95 17
l35 34 -5 -57 c-4 -41 -2 -60 9 -68 30 -25 229 -42 283 -25 11 4 22 18 23 31
2 14 11 35 19 48 12 18 14 38 8 87 l-6 64 43 -10 c79 -18 161 4 221 61 69 63
76 143 24 243 -26 48 -37 85 -46 154 -19 152 -70 269 -204 466 -73 107 -177
291 -177 313 0 8 -5 15 -11 15 -5 0 -7 6 -3 13 6 9 4 9 -8 -1 -14 -11 -19 -4
-44 58 -15 38 -28 70 -30 70 -1 0 -11 -31 -23 -69 -23 -75 -26 -108 -12 -130
8 -12 13 -12 35 2 14 9 37 17 50 17 20 0 24 4 19 18 -4 12 0 10 11 -5 11 -15
14 -32 10 -50 -4 -22 -3 -25 5 -13 8 11 10 4 9 -30 0 -27 -3 -35 -5 -20 -3 14
-9 31 -15 37 -6 7 -8 20 -4 28 4 11 -2 15 -23 15 -42 0 -89 -22 -84 -40 4 -13
3 -13 -6 0 -6 8 -11 24 -11 35 0 17 -2 18 -10 5 -8 -11 -9 -8 -4 13 4 17 2 27
-5 27 -6 0 -11 5 -11 11 0 5 5 7 11 3 9 -5 10 1 5 20 -5 20 -4 26 5 20 9 -5
10 -1 7 14 -4 12 -2 20 3 17 11 -7 23 38 23 92 1 53 17 50 33 -6 7 -24 16 -48
22 -55 5 -6 12 -26 16 -44 3 -18 11 -30 16 -26 5 3 7 9 4 13 -2 5 -18 45 -35
90 l-30 82 30 -18 c16 -9 51 -38 77 -63 27 -25 100 -96 165 -158 64 -61 122
-112 128 -112 9 0 9 5 -1 18 -13 15 -12 16 3 4 9 -8 15 -19 12 -27 -3 -8 4
-16 18 -20 13 -4 30 -13 38 -20 20 -18 99 -45 132 -45 15 0 37 4 50 9 13 5 26
9 31 10 4 0 21 8 37 16 16 8 31 15 32 14 9 -5 174 110 219 153 16 14 29 24 29
21 0 -3 24 16 53 43 28 27 73 67 100 88 26 21 47 42 47 45 0 4 -15 15 -34 23
-29 15 -36 15 -52 3 -11 -8 -14 -15 -9 -15 6 0 15 3 21 8 5 4 1 -1 -9 -10 -17
-16 -17 -17 0 -27 12 -6 25 -6 38 1 19 10 19 10 3 -7 -15 -17 -19 -17 -40 -3
-23 15 -37 75 -15 61 5 -3 8 0 5 8 -3 8 -17 21 -33 29 -16 8 -36 20 -44 27
-60 47 -106 71 -113 60 -7 -11 -12 -2 -9 16 2 12 -61 63 -74 59 -5 -2 -7 0 -3
4 12 11 -11 34 -28 27 -8 -3 -14 1 -14 8 0 7 -2 10 -5 7 -11 -10 8 -39 22 -34
8 3 11 2 8 -3 -3 -6 -14 -9 -24 -8 -14 1 -19 8 -17 27 1 19 7 24 21 22 16 -3
17 -2 6 12 -7 9 -18 13 -24 9 -5 -3 -7 -2 -4 4 10 15 -31 75 -46 67 -8 -5 -7
-2 2 9 8 11 9 17 3 17 -6 0 -16 -9 -22 -20 -6 -11 -8 -20 -5 -20 3 0 -3 -10
-15 -22 -19 -21 -28 -44 -12 -35 4 3 8 -9 9 -26 1 -29 1 -30 -8 -9 -5 13 -13
20 -19 17 -16 -10 -50 -87 -43 -98 3 -6 2 -7 -4 -4 -8 5 -47 -58 -40 -66 1 -2
-6 -11 -15 -21 -9 -9 -15 -23 -12 -30 3 -7 -2 -16 -11 -20 -10 -3 -15 -12 -11
-21 3 -8 1 -15 -4 -15 -6 0 -10 6 -10 13 0 11 -34 47 -44 47 -2 0 -2 -9 1 -19
3 -11 1 -27 -5 -36 -7 -13 -8 -7 -7 21 2 34 -2 43 -39 75 -22 20 -45 37 -49
37 -4 1 -16 9 -25 20 -9 10 -15 13 -12 7 3 -6 -2 -3 -11 6 -9 10 -25 16 -35
15 -11 -2 -13 -1 -6 1 10 4 10 8 1 19 -13 16 -33 19 -24 4 3 -5 1 -10 -5 -10
-7 0 -10 6 -7 14 7 17 -18 40 -33 31 -6 -3 -8 -10 -6 -14 3 -3 -4 -7 -14 -7
-10 0 -16 5 -13 10 4 6 -1 6 -13 1 -36 -15 -64 -17 -64 -6 0 6 6 11 14 11 7 0
19 7 26 15 15 18 34 20 24 3 -5 -8 -2 -9 10 -5 10 4 15 3 11 -3 -3 -6 -2 -10
4 -10 24 0 19 20 -11 41 -18 12 -65 46 -105 76 -39 29 -76 53 -82 53 -6 0 -11
4 -11 9 0 14 -107 64 -124 58 -9 -4 -16 -2 -16 3 0 5 -14 8 -31 8 l-30 -1 23
-24z m85 0 c-9 -8 12 -33 27 -33 6 0 4 5 -4 10 -8 5 -10 10 -5 10 6 0 17 -5
25 -10 10 -6 11 -10 3 -10 -7 0 -13 -5 -13 -11 0 -7 9 -9 22 -6 13 4 30 -1 44
-12 l23 -18 -36 -1 c-34 -1 -35 -1 -17 14 20 16 13 16 -33 -3 -10 -4 -14 -2
-10 4 14 23 -27 24 -46 1 l-18 -23 11 23 c6 12 8 27 5 33 -6 9 11 39 23 39 3
0 2 -3 -1 -7z m-8 -94 c-8 -16 -8 -28 1 -47 10 -22 9 -24 -4 -12 -9 7 -16 19
-16 27 0 16 18 53 26 53 2 0 0 -10 -7 -21z m873 -29 c4 -28 2 -33 -13 -35 -11
-2 -15 4 -14 19 3 26 3 26 15 26 6 0 11 -4 12 -10z m-662 -22 c0 -4 -6 -8 -14
-8 -8 0 -17 4 -20 8 -2 4 4 8 15 8 10 0 19 -4 19 -8z m620 -8 c0 -5 -2 -10 -4
-10 -3 0 -8 5 -11 10 -3 6 -1 10 4 10 6 0 11 -4 11 -10z m-829 -25 c5 4 6 -1
3 -9 -3 -9 -11 -13 -16 -9 -7 4 -9 -4 -6 -20 3 -15 1 -24 -3 -21 -5 3 -9 -3
-10 -13 0 -12 -2 -14 -6 -4 -3 7 1 31 8 54 7 22 15 35 17 28 2 -6 8 -9 13 -6z
m774 -70 c-10 -29 -14 -34 -15 -17 0 23 18 67 25 60 2 -2 -2 -22 -10 -43z
m-1001 16 c4 -5 -3 -7 -14 -4 -23 6 -26 13 -6 13 8 0 17 -4 20 -9z m1032 -30
c-1 -31 -16 -33 -16 -2 0 15 8 31 15 31 1 0 2 -13 1 -29z m-962 -22 c-3 -5
-10 -7 -15 -3 -5 3 -7 10 -3 15 3 5 10 7 15 3 5 -3 7 -10 3 -15z m586 -32 c8
-3 2 -5 -15 -4 -16 1 -36 7 -43 14 -17 16 -32 17 -32 1 0 -6 -2 -9 -5 -6 -3 3
-3 12 1 21 5 14 9 14 42 -3 21 -10 44 -20 52 -23z m560 33 c0 -5 -5 -10 -11
-10 -5 0 -7 5 -4 10 3 6 8 10 11 10 2 0 4 -4 4 -10z m-1113 -16 c-3 -3 -12 -4
-19 -1 -8 3 -5 6 6 6 11 1 17 -2 13 -5z m906 -6 c2 -7 0 -22 -4 -33 l-9 -20 2
20 c2 11 -1 26 -5 33 -5 6 -4 12 1 12 6 0 12 -6 15 -12z m224 -3 c0 -17 -13
-20 -21 -6 -4 5 0 12 6 14 7 3 13 6 14 6 0 1 1 -6 1 -14z m-280 -27 c2 -17 0
-19 -7 -8 -5 8 -6 18 -4 22 8 12 10 10 11 -14z m368 -27 c-6 -5 -25 10 -25 20
0 5 6 4 14 -3 8 -7 12 -15 11 -17z m-592 -8 c-5 -12 -2 -15 10 -10 11 4 14 2
10 -9 -3 -7 -9 -14 -13 -14 -11 0 -21 30 -14 41 9 15 14 10 7 -8z m208 -34
c-7 -18 -10 -20 -10 -6 -1 10 -6 15 -12 12 -6 -4 -5 2 3 14 16 27 31 12 19
-20z m369 22 c0 -5 -7 -11 -14 -14 -10 -4 -13 -1 -9 9 6 15 23 19 23 5z m58
-12 c3 -12 2 -12 -6 0 -6 8 -15 10 -22 6 -9 -5 -11 -4 -6 4 10 15 28 10 34
-10z m-973 -18 c-3 -5 5 -17 17 -25 12 -9 17 -16 11 -16 -14 0 -43 28 -43 41
0 5 5 9 11 9 5 0 8 -4 4 -9z m45 -12 c0 -4 -7 -6 -15 -3 -8 4 -15 10 -15 15 0
4 7 6 15 3 8 -4 15 -10 15 -15z m70 11 c0 -5 -2 -10 -4 -10 -3 0 -8 5 -11 10
-3 6 -1 10 4 10 6 0 11 -4 11 -10z m870 -25 c0 -8 -4 -15 -10 -15 -5 0 -10 7
-10 15 0 8 5 15 10 15 6 0 10 -7 10 -15z m-820 -34 c0 -21 -19 -31 -55 -31
-13 0 -25 -5 -27 -12 -3 -8 -6 -7 -10 3 -3 7 -2 23 3 34 6 17 8 17 8 3 1 -26
51 -24 58 2 7 25 23 26 23 1z m-105 -1 c3 -5 1 -10 -4 -10 -6 0 -11 5 -11 10
0 6 2 10 4 10 3 0 8 -4 11 -10z m404 1 c10 -7 7 -9 -12 -8 -14 1 -23 5 -20 10
6 9 15 9 32 -2z m-639 -54 c0 -10 -4 -15 -10 -12 -5 3 -10 18 -10 33 0 21 2
24 10 12 5 -8 10 -23 10 -33z m320 -19 c0 -12 -10 -9 -26 6 -20 21 -17 28 6
14 11 -7 20 -16 20 -20z m930 22 c12 -7 10 -9 -8 -7 -12 0 -22 5 -22 9 0 11
12 10 30 -2z m-1276 -16 c3 -8 2 -12 -4 -9 -6 3 -10 10 -10 16 0 14 7 11 14
-7z m361 -25 c-5 -15 -4 -19 4 -15 6 4 11 2 11 -3 0 -14 -13 -14 -27 0 -9 9
-8 15 0 25 17 19 19 17 12 -7z m868 7 c4 -11 1 -13 -10 -9 -10 4 -14 2 -9 -5
3 -6 1 -14 -5 -18 -8 -5 -9 -3 -4 6 6 10 4 12 -8 7 -14 -5 -15 -3 -4 13 14 24
33 26 40 6z m-1181 -29 c-5 -18 -7 -19 -10 -4 -2 9 -7 15 -12 12 -5 -3 -12 0
-16 6 -4 7 -3 9 4 5 6 -3 13 -2 17 4 11 18 23 1 17 -23z m368 -21 c0 -8 7 -22
16 -30 8 -9 11 -16 7 -16 -5 0 -19 14 -31 30 -18 24 -20 30 -7 30 8 0 15 -6
15 -14z m27 -18 c-3 -8 -6 -5 -6 6 -1 11 2 17 5 13 3 -3 4 -12 1 -19z m-376
-7 c-6 -10 -7 -22 -3 -26 4 -5 2 -5 -5 -2 -9 6 -11 22 -4 45 1 1 6 2 11 2 7 0
7 -6 1 -19z m459 -33 c0 -6 -6 -5 -15 2 -8 7 -15 14 -15 16 0 2 7 1 15 -2 8
-4 15 -11 15 -16z m507 -14 c-15 -15 -27 -23 -27 -19 0 12 42 56 48 50 3 -3
-7 -17 -21 -31z m71 16 c7 -11 11 -20 9 -20 -2 0 -12 9 -22 20 -10 11 -14 20
-9 20 5 0 15 -9 22 -20z m-612 -15 c11 -27 -1 -30 -23 -7 -22 21 -22 22 -2 22
11 0 22 -7 25 -15z m-425 -18 c-10 -9 -11 -8 -5 6 3 10 9 15 12 12 3 -3 0 -11
-7 -18z m988 -8 c-26 -33 -41 -39 -47 -17 -2 9 0 8 7 -2 8 -12 11 -11 17 5 10
25 26 44 38 45 5 0 -2 -14 -15 -31z m-532 -13 c-3 -7 0 -20 6 -27 10 -11 9
-11 -5 0 -15 11 -15 41 -1 41 3 0 3 -6 0 -14z m43 -16 c8 -5 11 -10 5 -10 -5
0 -17 5 -25 10 -8 5 -10 10 -5 10 6 0 17 -5 25 -10z m400 -15 c0 -2 -8 -1 -17
2 -16 6 -16 5 -4 -10 12 -15 12 -17 -2 -11 -9 3 -15 14 -14 24 1 15 5 16 19 9
10 -5 18 -12 18 -14z m30 10 c11 -13 10 -14 -4 -9 -9 3 -16 10 -16 15 0 13 6
11 20 -6z m-1177 -52 c65 -60 81 -85 72 -114 -3 -9 -1 -20 5 -24 15 -10 12
-21 -13 -45 -23 -22 -23 -24 -6 -41 16 -16 17 -23 7 -44 -6 -14 -15 -25 -19
-25 -5 0 -24 -13 -42 -30 -42 -37 -64 -38 -79 -5 -11 24 -11 25 -25 5 -24 -34
-54 -24 -100 31 -24 28 -43 55 -43 59 0 5 11 17 25 28 24 19 24 20 5 37 -10 9
-18 27 -17 38 2 38 129 187 158 187 5 0 37 -26 72 -57z m287 12 c0 -5 -5 -3
-10 5 -5 8 -10 20 -10 25 0 6 5 3 10 -5 5 -8 10 -19 10 -25z m128 -20 c0 -20
-3 -23 -14 -14 -10 8 -11 14 -1 24 7 8 13 14 13 15 1 0 2 -11 2 -25z m412 -1
c0 -11 6 -15 20 -11 11 3 23 1 26 -4 8 -13 -29 -11 -65 4 -32 14 -32 27 1 27
10 0 18 -7 18 -16z m300 12 c0 -2 -8 -10 -17 -17 -16 -13 -17 -12 -4 4 13 16
21 21 21 13z m-213 -22 c-3 -3 -12 -4 -19 -1 -8 3 -5 6 6 6 11 1 17 -2 13 -5z
m120 -7 c0 -7 -9 -13 -19 -13 -18 0 -18 1 -2 13 10 7 18 13 19 13 1 0 2 -6 2
-13z m-54 -17 c17 -20 16 -20 -9 -14 -17 4 -25 3 -21 -3 4 -6 -7 -7 -26 -4
l-32 5 33 7 c18 4 36 10 40 14 4 3 -5 4 -21 1 -15 -3 -39 -9 -54 -12 -39 -8
-21 7 19 16 50 12 52 12 71 -10z m-626 -12 c-3 -8 -6 -5 -6 6 -1 11 2 17 5 13
3 -3 4 -12 1 -19z m93 -90 c0 -62 -4 -119 -9 -126 -5 -8 -7 8 -5 40 2 29 1 45
-2 35 -5 -17 -8 -16 -20 8 -8 15 -13 39 -13 54 1 23 2 22 8 -7 10 -55 26 -31
26 41 0 37 3 67 8 67 4 0 7 -51 7 -112z m-50 67 c0 -5 -5 -3 -10 5 -5 8 -10
20 -10 25 0 6 5 3 10 -5 5 -8 10 -19 10 -25z m-11 -40 c0 -5 -6 -1 -14 9 -8
11 -15 24 -15 30 0 5 7 1 15 -10 8 -10 14 -23 14 -29z m-20 -30 c0 -5 -6 1
-14 15 -8 14 -14 30 -14 35 0 6 6 -1 14 -15 8 -14 14 -29 14 -35z m41 -69 c0
-12 -5 -7 -19 24 -11 24 -11 24 3 6 9 -11 16 -24 16 -30z"/>
<path d="M2766 3087 c3 -10 9 -15 12 -12 3 3 0 11 -7 18 -10 9 -11 8 -5 -6z"/>
<path d="M1222 3162 c-18 -10 -29 -22 -25 -27 4 -4 2 -5 -4 -1 -7 4 -25 1 -40
-8 -26 -13 -182 -87 -193 -91 -25 -8 -39 -18 -35 -25 3 -5 -3 -6 -12 -4 -10 3
-43 -11 -73 -31 -30 -20 -71 -45 -90 -56 -72 -40 -216 -152 -268 -209 -70 -76
-75 -86 -68 -150 4 -33 15 -85 26 -117 16 -50 17 -59 4 -79 -14 -20 -12 -28
15 -88 16 -36 36 -75 44 -86 14 -20 15 -20 38 17 31 50 34 57 19 48 -9 -5 -11
-4 -6 4 4 6 12 9 17 5 5 -3 23 6 40 20 51 43 169 94 247 107 50 8 72 16 72 26
0 8 -5 11 -12 7 -7 -4 -8 -3 -4 5 8 12 -16 55 -64 116 -16 21 -30 42 -30 46 0
5 21 20 48 34 145 77 207 114 204 125 -1 6 2 9 7 5 6 -3 22 2 36 11 21 14 23
19 13 33 -11 14 -11 14 3 3 9 -7 24 -10 33 -6 17 7 22 24 6 24 -5 0 -7 6 -4
13 2 7 -5 23 -17 36 -14 15 -24 41 -27 72 -5 59 16 98 99 182 59 58 59 70 1
39z m-397 -540 c-3 -3 -11 0 -18 7 -9 10 -8 11 6 5 10 -3 15 -9 12 -12z"/>
<path d="M2165 3000 c-3 -6 1 -7 9 -4 18 7 21 14 7 14 -6 0 -13 -4 -16 -10z"/>
<path d="M1491 573 c-6 -21 -13 -54 -16 -74 -3 -20 -13 -43 -23 -52 -22 -20
-102 -38 -156 -36 -23 1 -50 -1 -62 -5 -14 -4 -26 0 -39 14 -10 11 -26 20 -37
20 -15 0 -18 -8 -18 -48 0 -62 -19 -80 -124 -122 -80 -31 -98 -32 -157 -9 -64
25 -55 106 14 123 41 11 47 21 16 31 -49 16 -126 -30 -159 -96 -52 -101 -17
-185 107 -251 120 -65 248 -81 339 -43 18 7 63 42 102 77 56 52 81 67 133 83
115 33 156 54 169 86 18 42 6 107 -35 197 -28 59 -35 85 -30 110 8 45 -12 41
-24 -5z"/>
<path d="M1728 572 c3 -28 -5 -58 -28 -108 -44 -98 -54 -146 -36 -188 16 -39
44 -55 136 -81 87 -23 108 -35 171 -96 92 -89 183 -114 299 -85 92 23 184 72
230 122 34 37 40 50 40 86 -1 110 -108 221 -184 192 -26 -10 -18 -21 19 -28
60 -12 74 -81 25 -118 -48 -35 -89 -34 -184 7 -48 21 -91 46 -97 56 -5 10 -12
39 -15 64 -7 49 -17 54 -52 27 -20 -16 -34 -17 -120 -9 -121 11 -149 24 -157
75 -16 98 -55 167 -47 84z"/>
</g>
</svg>
