<?xml version="1.0" standalone="no"?>
<!DOCTYPE svg PUBLIC "-//W3C//DTD SVG 20010904//EN"
 "http://www.w3.org/TR/2001/REC-SVG-20010904/DTD/svg10.dtd">
<svg version="1.0" xmlns="http://www.w3.org/2000/svg"
 width="1600.000000pt" height="872.000000pt" viewBox="0 0 1600.000000 872.000000"
 preserveAspectRatio="xMidYMid meet">

<g transform="translate(0.000000,872.000000) scale(0.100000,-0.100000)"
fill="#FFF113" stroke="none">
<path d="M6799 7328 c-14 -18 -35 -50 -48 -71 -13 -21 -29 -44 -36 -51 -8 -7
-52 -71 -99 -142 -162 -244 -207 -309 -221 -327 -8 -9 -15 -22 -15 -27 0 -22
-41 -26 -160 -18 -69 5 -163 6 -209 3 -65 -4 -86 -2 -95 9 -12 14 -76 12 -376
-14 -69 -6 -138 -12 -155 -13 l-30 -2 2 65 c2 61 22 241 43 393 6 37 10 95 10
129 l0 61 -57 -7 c-32 -4 -114 -11 -183 -17 -69 -6 -174 -14 -235 -20 -60 -5
-168 -14 -240 -19 -71 -6 -182 -15 -245 -21 -192 -16 -530 -43 -728 -58 -88
-6 -141 -15 -157 -25 l-23 -15 -6 -323 c-3 -178 -9 -421 -12 -540 -6 -209 -6
-218 12 -218 11 0 80 7 154 14 97 11 138 12 148 4 10 -9 12 -62 7 -262 -10
-448 -25 -979 -31 -1064 -5 -88 6 -128 32 -118 16 6 193 31 334 47 47 5 121
14 165 20 44 5 121 14 170 20 50 6 122 14 160 19 139 17 250 27 258 23 4 -2 7
-23 7 -45 l0 -41 93 7 c50 3 146 10 212 16 147 13 322 27 475 39 151 12 213
22 222 35 4 6 8 113 8 238 0 133 4 229 10 233 5 3 17 -9 26 -27 63 -123 226
-313 304 -353 19 -10 49 -28 65 -40 17 -13 53 -33 80 -45 28 -12 66 -29 85
-38 113 -50 301 -73 500 -60 159 10 316 34 326 49 3 5 15 9 28 9 12 0 26 3 30
7 7 7 75 33 88 33 4 0 8 -12 10 -27 l3 -28 455 -8 c653 -11 730 -12 780 -3 50
8 114 24 145 36 11 5 47 18 80 31 33 12 91 42 128 66 37 24 72 43 76 43 5 0
11 3 13 8 2 4 24 27 50 51 l46 43 44 -39 c56 -50 113 -92 163 -120 57 -33 144
-73 155 -73 6 0 18 -4 28 -9 19 -10 70 -24 152 -41 89 -19 444 -5 505 19 11 5
52 18 90 31 73 23 190 78 238 112 48 34 56 21 59 -99 2 -77 6 -107 15 -106 6
2 76 8 155 14 151 11 284 22 483 39 66 6 166 13 222 16 57 4 107 11 112 18 10
13 18 505 27 1690 l6 819 -108 -7 c-60 -3 -163 -11 -229 -16 -197 -15 -372
-29 -515 -38 -74 -6 -147 -13 -162 -17 l-28 -7 0 -314 c0 -247 -3 -314 -13
-314 -7 0 -29 11 -49 25 -20 14 -39 25 -42 25 -2 0 -37 15 -78 33 -68 31 -97
41 -195 67 -57 15 -282 28 -323 19 -19 -5 -57 -9 -84 -9 -27 0 -63 -4 -80 -9
-17 -5 -65 -19 -106 -31 -107 -32 -278 -116 -329 -163 -14 -13 -43 -36 -64
-52 l-37 -27 -43 39 c-23 21 -60 52 -82 68 -22 17 -45 35 -51 40 -11 11 -175
94 -209 106 -46 17 -159 35 -282 45 l-82 7 6 285 6 285 -54 -7 c-52 -7 -150
-15 -454 -37 -162 -11 -343 -25 -465 -35 -47 -4 -88 -12 -93 -18 -4 -6 -6 -48
-5 -93 1 -45 -1 -85 -5 -89 -6 -6 -58 18 -152 71 -27 15 -84 47 -125 70 -41
23 -115 64 -165 90 -49 27 -107 58 -127 71 -62 40 -81 40 -109 2z m-1655 -299
c-1 -23 -13 -137 -34 -329 -5 -47 -12 -118 -16 -158 -8 -88 -4 -85 -164 -102
-63 -6 -123 -14 -132 -16 -17 -5 -18 -48 -18 -714 0 -625 -2 -709 -15 -714 -9
-3 -91 -15 -183 -26 -160 -19 -203 -25 -392 -51 -138 -19 -125 -46 -122 256 2
143 7 366 12 495 5 129 10 334 11 455 l1 220 -84 -4 c-45 -2 -118 -4 -161 -5
l-79 -1 1 190 c1 105 4 240 7 301 l7 112 38 6 c21 3 92 11 158 16 66 5 198 17
293 25 95 8 227 19 293 25 66 6 176 15 245 21 204 18 314 26 325 24 6 -1 9
-13 9 -26z m1835 -15 c36 -21 93 -52 126 -70 33 -19 79 -44 103 -56 23 -12 42
-27 42 -33 0 -6 -98 -80 -217 -165 l-218 -153 -92 49 c-51 27 -93 54 -93 60 0
18 264 404 277 404 4 0 36 -16 72 -36z m1325 -24 c-1 -25 -5 -167 -9 -316 -6
-191 -5 -273 3 -278 6 -3 25 3 44 13 18 11 64 32 101 46 58 21 86 26 175 26
200 0 343 -63 494 -218 48 -49 144 -199 155 -241 8 -35 25 -22 63 50 31 59 61
103 110 161 26 32 133 112 190 144 60 33 184 75 268 92 79 16 289 14 366 -4
88 -21 215 -75 277 -120 46 -33 146 -132 175 -174 7 -9 26 -44 43 -78 165
-325 122 -681 -111 -915 -126 -126 -271 -198 -473 -234 -95 -17 -227 -18 -293
-3 -118 26 -143 35 -232 77 -81 38 -107 57 -185 136 -73 72 -100 107 -131 171
-21 44 -43 83 -48 87 -5 3 -23 -24 -41 -60 -56 -117 -166 -236 -281 -305 -142
-85 -340 -125 -504 -103 -56 7 -219 65 -277 97 -17 10 -34 15 -37 12 -3 -4 -6
-26 -6 -49 0 -56 1 -55 -220 -52 l-175 3 -6 520 c-4 286 -9 741 -13 1010 -4
270 -3 495 1 502 5 7 68 16 163 23 85 7 200 16 255 20 55 4 114 7 130 6 29 -1
30 -3 29 -46z m3187 3 c5 -23 -8 -1393 -17 -1750 l-6 -271 -42 -6 c-90 -13
-325 -31 -401 -31 l-80 0 -6 625 c-4 344 -9 799 -12 1012 l-6 386 37 6 c20 3
132 13 247 21 116 9 217 17 225 19 38 9 58 5 61 -11z m-4004 -357 c3 -36 2
-77 -1 -91 l-7 -26 -44 31 c-24 16 -48 30 -53 30 -5 0 -16 8 -26 18 -16 18
-13 21 51 65 38 25 69 44 71 42 2 -2 6 -33 9 -69z m-1809 -298 c1 -65 6 -118
10 -118 4 0 15 20 25 44 28 68 80 121 155 158 62 31 75 33 185 37 65 2 123 -1
128 -6 5 -5 4 -23 -1 -43 -5 -19 -32 -127 -60 -240 -28 -113 -53 -215 -56
-226 -5 -19 -14 -22 -88 -26 -140 -7 -231 -75 -255 -188 -7 -31 -11 -184 -11
-395 0 -318 -1 -345 -17 -353 -10 -5 -58 -12 -108 -15 -49 -3 -148 -11 -220
-17 -71 -7 -141 -13 -155 -13 l-25 -2 -6 135 c-11 238 -13 1330 -3 1340 5 5
93 17 194 25 102 9 192 17 200 19 8 2 35 3 60 3 l45 -2 3 -117z m1447 92 c125
-39 202 -87 301 -185 107 -106 187 -231 166 -260 -4 -6 -43 -37 -87 -70 -43
-33 -86 -65 -95 -72 -8 -6 -62 -47 -120 -90 -330 -248 -430 -327 -427 -337 6
-19 133 -31 211 -19 81 11 126 30 208 85 31 21 61 38 65 38 5 0 17 -15 27 -32
19 -33 45 -76 149 -244 31 -50 59 -98 62 -106 11 -28 -159 -130 -285 -171
-157 -52 -406 -71 -545 -42 -332 69 -543 269 -616 585 -15 67 -15 269 0 330
24 94 34 127 61 185 101 223 276 366 515 420 92 22 320 13 410 -15z"/>
<path d="M10020 5954 c-47 -9 -145 -61 -181 -97 -65 -63 -92 -152 -69 -223 32
-97 109 -161 207 -172 75 -8 203 41 266 104 56 55 71 89 71 165 0 57 -4 74
-30 115 -43 70 -100 106 -177 109 -34 2 -73 1 -87 -1z"/>
<path d="M8477 5919 c-88 -21 -182 -90 -215 -159 -27 -55 -23 -156 7 -200 55
-80 109 -105 221 -104 71 0 94 5 140 27 147 71 200 190 142 317 -44 96 -173
148 -295 119z"/>
<path d="M6811 6016 c-80 -29 -141 -110 -155 -207 -9 -64 2 -129 23 -129 16 0
315 219 356 261 l20 20 -29 23 c-53 44 -145 58 -215 32z"/>
<path d="M2325 7259 c-66 -4 -185 -13 -265 -19 -80 -6 -206 -15 -280 -20 -412
-28 -736 -52 -1004 -77 l-189 -17 7 -380 c3 -210 9 -756 13 -1214 3 -458 9
-835 13 -837 9 -6 501 15 1035 45 99 5 244 12 323 16 l142 7 0 -47 c0 -57 -54
-55 430 -15 69 5 175 14 235 20 61 5 156 12 212 15 57 4 107 11 112 18 12 14
30 952 35 1830 l4 678 -106 -6 c-59 -3 -163 -10 -232 -16 -330 -25 -308 -25
-312 1 -4 29 -7 29 -173 18z m-101 -257 c5 -8 1 -42 -45 -417 -5 -44 -12 -108
-16 -143 -5 -53 -9 -63 -27 -67 -11 -2 -100 -7 -196 -11 -96 -3 -229 -9 -295
-13 l-120 -6 -3 -54 c-2 -30 1 -58 6 -63 6 -6 45 -6 103 1 52 5 150 13 218 16
l124 6 -6 -63 c-6 -63 -20 -186 -35 -305 -5 -35 -11 -65 -13 -68 -3 -2 -77
-10 -165 -16 -87 -6 -179 -13 -204 -17 l-45 -7 -3 -59 c-2 -32 1 -62 5 -67 8
-7 93 -2 328 20 257 24 376 33 381 28 9 -8 -7 -663 -16 -677 -5 -8 -143 -19
-446 -35 -667 -37 -895 -48 -898 -44 -2 2 -8 441 -14 974 -8 814 -7 972 4 984
9 11 50 17 131 23 148 9 369 25 538 37 72 5 229 17 350 26 121 9 225 17 230
20 19 7 124 5 129 -3z m677 -572 c-2 -621 -17 -1449 -24 -1457 -3 -2 -54 -9
-114 -14 -59 -5 -147 -14 -194 -19 -121 -14 -209 -13 -213 3 -3 6 -7 463 -10
1013 l-6 1001 38 6 c20 4 129 13 242 22 113 9 212 17 220 19 8 2 26 3 40 3
l24 -2 -3 -575z"/>
<path d="M2375 4249 c-55 -4 -161 -13 -235 -19 -171 -14 -359 -27 -525 -38
-72 -5 -137 -12 -144 -16 -10 -7 -12 -59 -10 -242 2 -142 0 -237 -6 -243 -6
-5 -55 -12 -110 -14 -188 -9 -314 -52 -470 -163 -112 -79 -196 -181 -265 -322
-89 -180 -118 -294 -127 -507 -4 -99 -1 -138 17 -220 12 -55 24 -115 27 -133
3 -18 9 -35 14 -38 5 -3 9 -12 9 -20 0 -19 61 -143 105 -213 72 -116 255 -274
367 -317 24 -10 48 -20 53 -24 9 -6 24 -10 135 -41 37 -10 175 -18 365 -21 17
0 109 5 205 11 337 23 466 31 585 37 66 4 126 11 133 16 7 7 12 37 12 84 0 43
4 74 10 74 13 0 40 -15 102 -58 52 -35 149 -81 213 -102 22 -7 49 -16 60 -21
45 -17 121 -23 320 -23 199 -1 273 6 370 34 22 6 51 14 65 17 42 8 305 141
335 168 6 6 55 39 108 74 53 35 97 69 97 75 0 6 -18 39 -40 74 -22 34 -40 67
-40 72 0 6 -4 10 -9 10 -5 0 -11 8 -14 18 -4 9 -19 38 -34 63 -15 25 -48 79
-73 120 -24 41 -48 76 -52 77 -5 2 -8 7 -8 12 0 4 -18 38 -41 75 -22 36 -39
70 -37 75 3 10 112 96 241 190 48 35 87 69 87 76 0 31 -108 257 -165 345 -53
82 -180 211 -263 267 -33 23 -91 56 -129 73 -37 17 -76 35 -85 40 -10 5 -29 9
-42 9 -14 0 -27 4 -30 9 -13 21 -260 39 -390 29 -124 -10 -242 -33 -252 -49
-3 -5 -12 -9 -21 -9 -23 0 -109 -46 -191 -101 -49 -34 -74 -46 -77 -37 -3 7
-6 184 -7 393 -3 372 -3 380 -23 381 -11 1 -65 -2 -120 -7z m-96 -751 c-1
-277 -5 -739 -8 -1028 l-6 -525 -115 -11 c-63 -6 -172 -14 -242 -18 l-128 -6
0 58 c0 32 -3 61 -6 65 -4 3 -29 -12 -58 -33 -99 -75 -210 -105 -352 -97 -113
6 -155 16 -235 54 -167 79 -305 235 -359 408 -7 22 -16 49 -21 60 -23 59 -32
284 -16 390 43 274 210 505 426 586 174 65 376 62 501 -8 27 -15 52 -24 56
-20 4 4 2 134 -5 289 -6 155 -8 285 -4 289 4 4 71 12 148 19 77 6 176 15 220
19 44 5 108 9 143 10 l62 1 -1 -502z m1027 -59 c170 -30 309 -103 421 -222 84
-89 167 -228 147 -246 -5 -5 -172 -131 -372 -281 -200 -149 -361 -277 -359
-284 5 -15 48 -23 132 -25 113 -2 192 24 302 100 23 16 45 29 50 29 8 -1 227
-359 238 -391 7 -18 -19 -36 -135 -97 -157 -82 -334 -122 -536 -122 -225 0
-444 88 -585 237 -106 110 -166 234 -194 397 -25 152 -2 334 61 474 103 228
291 378 534 427 82 16 218 18 296 4z"/>
<path d="M1429 2887 c-67 -18 -141 -77 -171 -136 -61 -117 -21 -242 97 -304
50 -26 170 -27 228 -3 97 42 161 135 161 232 -1 155 -153 257 -315 211z"/>
<path d="M3111 3010 c-88 -21 -165 -118 -177 -226 -7 -54 10 -128 28 -122 20
7 357 264 362 277 8 19 -39 54 -93 68 -51 14 -71 15 -120 3z"/>
<path d="M8500 4250 c-108 -8 -167 -16 -225 -31 -22 -6 -58 -15 -80 -21 -41
-11 -77 -24 -107 -39 -10 -5 -22 -9 -27 -9 -5 0 -54 -26 -107 -57 -183 -108
-336 -281 -401 -453 -47 -125 -65 -219 -66 -348 -1 -173 42 -310 139 -443 l34
-46 -16 -54 c-9 -30 -20 -58 -25 -63 -5 -6 -9 -19 -9 -31 0 -12 -4 -25 -8 -31
-5 -5 -19 -43 -32 -84 -13 -41 -27 -79 -32 -84 -4 -6 -8 -18 -8 -28 0 -10 -4
-26 -9 -36 -6 -9 -22 -51 -36 -92 -15 -41 -30 -84 -35 -95 -5 -11 -18 -49 -30
-85 -11 -36 -25 -73 -30 -82 -6 -10 -10 -26 -10 -36 0 -10 -4 -22 -9 -28 -24
-24 -9 -94 20 -94 9 0 74 -29 184 -80 33 -15 78 -34 100 -41 22 -7 45 -16 50
-19 6 -4 30 -12 55 -19 25 -7 54 -17 65 -21 11 -5 34 -11 50 -15 17 -3 50 -11
75 -16 105 -23 163 -30 305 -36 143 -5 179 -2 345 28 54 10 72 14 160 39 64
18 74 22 180 75 52 26 116 63 143 81 26 19 53 34 60 34 7 0 33 -21 57 -46 48
-49 171 -134 195 -134 7 0 17 -5 20 -10 3 -5 17 -10 30 -10 13 0 26 -4 29 -9
16 -25 170 -29 526 -12 113 5 294 13 403 17 109 4 200 11 203 15 3 5 33 9 68
9 37 0 76 6 94 16 30 14 32 19 32 69 0 30 4 56 9 59 5 3 35 -12 68 -33 51 -33
126 -69 208 -101 23 -9 77 -23 151 -40 108 -24 453 -11 560 21 17 5 40 9 52 9
11 0 23 4 26 9 3 5 18 11 33 14 16 3 38 8 50 12 20 6 22 3 25 -41 l3 -49 50 1
c28 0 115 7 195 14 80 6 192 16 250 21 152 12 354 29 435 37 l70 7 3 449 c1
311 6 453 13 463 6 7 30 13 54 13 72 0 74 -5 78 -250 4 -207 9 -262 27 -305 4
-11 15 -40 24 -64 21 -55 84 -147 127 -186 41 -36 106 -85 113 -85 3 0 28 -13
56 -30 28 -16 61 -30 74 -30 12 0 26 -3 30 -7 16 -16 108 -32 221 -38 133 -7
382 7 413 24 16 8 23 29 33 86 8 53 16 75 26 75 8 0 38 -15 66 -34 133 -87
278 -132 462 -144 149 -10 438 9 451 29 3 5 20 9 38 9 17 0 36 4 42 8 5 5 29
15 54 22 75 23 215 97 336 177 l114 76 0 81 c0 55 -5 88 -14 102 -17 24 -230
373 -257 421 -10 18 -16 38 -13 45 2 7 35 36 72 63 37 28 72 55 78 60 7 6 39
30 73 54 l61 44 0 77 c0 75 -2 82 -58 192 -121 239 -300 401 -547 498 -23 9
-80 24 -150 40 -64 15 -366 16 -393 1 -12 -6 -39 -11 -61 -11 -22 0 -43 -4
-46 -10 -3 -5 -15 -10 -26 -10 -10 0 -27 -4 -37 -9 -9 -5 -30 -14 -47 -21 -16
-7 -46 -21 -66 -31 -20 -11 -39 -19 -43 -19 -3 0 -6 32 -6 71 l0 72 -67 -7
c-38 -3 -85 -9 -105 -12 l-38 -6 0 245 c0 149 -4 248 -10 252 -5 3 -34 -6 -65
-20 -31 -14 -57 -25 -59 -25 -2 0 -48 -21 -102 -46 -168 -77 -188 -86 -209
-94 -11 -5 -60 -27 -110 -50 -115 -54 -181 -84 -225 -103 -19 -8 -62 -27 -95
-42 -33 -15 -79 -36 -103 -46 -26 -11 -46 -28 -52 -44 -7 -18 -17 -25 -37 -25
-16 0 -46 -5 -67 -11 -36 -10 -41 -9 -56 11 -12 16 -23 20 -38 16 -12 -4 -79
-11 -149 -17 -128 -10 -273 -22 -478 -40 -60 -5 -155 -12 -210 -15 -108 -7
-125 -14 -125 -50 0 -13 -2 -24 -5 -24 -2 0 -40 16 -82 37 -89 42 -103 47
-158 61 -22 6 -60 16 -83 22 -56 15 -374 15 -401 1 -11 -6 -38 -11 -60 -11
-22 0 -43 -4 -46 -10 -3 -5 -15 -10 -26 -10 -10 0 -27 -4 -37 -9 -9 -5 -44
-21 -77 -36 -33 -15 -72 -36 -88 -47 -47 -34 -61 -19 -54 60 8 83 1 97 -44 88
-19 -4 -95 -12 -169 -17 -170 -12 -382 -27 -481 -35 l-76 -6 -12 32 c-10 30
-13 32 -43 26 -31 -7 -126 -15 -433 -36 -66 -5 -150 -12 -187 -16 l-68 -7 0
27 c0 24 24 123 66 271 9 33 18 77 18 99 l1 38 -100 40 c-55 22 -109 44 -120
48 -11 4 -33 13 -48 19 -15 6 -39 11 -52 11 -13 0 -27 5 -30 10 -3 6 -17 10
-30 10 -13 0 -34 4 -47 9 -64 26 -344 42 -508 31z m339 -241 c96 -16 260 -58
294 -75 31 -17 31 -9 7 -114 -10 -43 -87 -343 -100 -385 -4 -16 -11 -42 -14
-57 -4 -16 -13 -28 -20 -28 -8 0 -61 18 -118 39 -144 54 -206 66 -338 66 -99
-1 -121 -4 -163 -24 -51 -25 -82 -69 -72 -100 6 -20 76 -51 113 -51 31 0 268
-57 317 -76 156 -61 312 -163 378 -249 88 -113 122 -234 115 -402 -10 -210
-96 -371 -268 -499 -89 -66 -269 -138 -410 -162 -219 -39 -350 -35 -559 15
-152 36 -351 111 -351 133 0 11 27 97 40 125 5 11 16 40 24 65 76 226 115 325
130 328 9 2 54 -12 99 -31 152 -65 220 -81 342 -81 135 1 195 22 222 79 15 32
15 38 1 69 -20 41 -62 64 -198 105 -114 35 -113 34 -214 81 -236 108 -377 294
-376 498 1 129 47 283 116 384 44 64 184 208 204 208 5 0 33 14 62 31 68 41
158 73 244 89 38 6 85 16 104 20 53 12 314 11 389 -1z m5086 -220 c4 -11 6
-85 5 -162 -4 -230 -6 -217 33 -217 18 0 59 5 91 11 32 6 62 7 67 2 7 -8 -3
-254 -17 -390 l-6 -62 -82 -3 -81 -3 -3 -246 c-1 -149 2 -257 8 -273 14 -39
71 -60 137 -52 l53 6 0 -29 c0 -15 -5 -53 -11 -82 -20 -102 -51 -284 -56 -324
-8 -64 -11 -65 -153 -65 -298 0 -454 97 -510 315 -18 71 -20 111 -20 411 0
372 5 350 -74 339 -68 -9 -68 -11 -58 196 5 101 6 193 1 204 -4 11 -8 16 -8
12 -1 -7 -20 -85 -62 -249 -5 -21 -13 -55 -18 -75 -6 -21 -16 -63 -24 -93
l-14 -55 -74 -6 c-150 -13 -237 -77 -267 -201 -8 -31 -12 -163 -12 -393 0
-268 -3 -347 -12 -350 -11 -4 -217 -23 -444 -41 l-71 -5 -9 703 c-10 808 -9
766 -1 774 9 9 404 45 457 42 l45 -3 5 -110 c3 -65 9 -109 15 -108 6 1 12 10
14 20 5 27 55 96 95 130 60 53 135 75 264 77 98 1 115 -1 123 -16 7 -13 22
-18 54 -18 73 0 75 2 75 91 l0 80 68 30 c37 17 90 41 117 53 104 49 182 84
245 111 36 16 69 32 75 37 16 14 33 9 40 -13z m-2280 -364 c144 -39 259 -108
356 -213 62 -68 149 -199 149 -225 0 -8 -75 -70 -167 -139 -475 -356 -568
-429 -568 -440 0 -34 213 -34 301 0 28 10 78 37 111 60 34 23 66 42 72 42 5 0
16 -12 24 -27 8 -16 60 -103 116 -194 55 -92 101 -171 101 -177 0 -27 -235
-144 -350 -173 -138 -36 -373 -50 -468 -28 -149 33 -217 60 -324 128 -219 138
-349 423 -317 699 19 161 49 253 120 370 105 169 282 287 494 330 71 15 278 7
350 -13z m3475 -5 c183 -53 347 -180 443 -345 26 -44 47 -84 47 -90 0 -5 -21
-26 -48 -45 -443 -331 -692 -524 -689 -533 11 -33 217 -32 303 1 28 10 78 38
112 61 34 23 67 39 72 36 5 -3 25 -32 43 -63 19 -31 71 -117 116 -191 44 -73
81 -136 81 -140 0 -8 -70 -51 -145 -90 -172 -89 -358 -128 -566 -118 -122 5
-195 21 -299 64 -307 126 -489 440 -450 774 19 166 43 240 117 362 84 140 235
260 388 309 131 42 344 46 475 8z m-5282 -135 c1 -82 -2 -296 -6 -475 -9 -349
-7 -371 39 -404 26 -18 110 -22 140 -6 46 25 47 36 40 515 -4 248 -3 458 1
468 6 12 21 17 51 17 36 0 248 16 456 35 l64 6 -6 -253 c-3 -139 -11 -464 -17
-723 -5 -258 -12 -484 -15 -501 l-5 -31 -98 -6 c-53 -4 -157 -7 -229 -7 l-133
0 0 94 c0 91 -11 129 -25 86 -12 -37 -84 -119 -128 -145 -77 -45 -142 -59
-262 -59 -148 0 -211 23 -303 108 -46 43 -70 78 -95 139 -21 50 -21 69 -25
643 -2 476 0 593 10 601 7 5 114 18 238 27 124 10 234 19 245 20 62 10 60 14
63 -149z"/>
<path d="M11380 3008 c-38 -11 -85 -41 -113 -73 -33 -38 -67 -128 -67 -178 0
-34 20 -97 31 -97 11 0 364 269 367 281 6 17 -39 48 -91 64 -57 17 -77 17
-127 3z"/>
<path d="M14822 3001 c-33 -11 -66 -32 -87 -55 -40 -44 -75 -130 -75 -185 0
-41 17 -101 29 -101 4 0 43 27 87 60 43 34 92 71 108 83 93 71 176 138 176
144 0 15 -48 44 -93 58 -64 19 -80 19 -145 -4z"/>
<path d="M5405 4229 c-60 -4 -171 -13 -245 -19 -248 -19 -389 -30 -521 -38
-95 -6 -133 -12 -140 -23 -11 -18 -11 -165 1 -789 6 -283 11 -784 13 -1112 1
-328 4 -598 7 -601 6 -5 177 7 605 43 66 5 176 14 244 18 113 8 126 11 143 32
l19 24 57 -19 c31 -10 62 -22 67 -26 20 -13 92 -21 235 -25 80 -2 155 -9 167
-15 22 -12 38 -11 313 12 240 19 346 28 475 38 72 6 144 14 160 19 l30 8 6
260 c19 730 21 1056 10 1097 -49 170 -97 259 -192 356 -50 50 -152 123 -199
141 -19 8 -50 22 -68 32 -18 10 -43 18 -57 18 -13 0 -26 4 -29 9 -7 11 -51 17
-213 32 -125 12 -397 1 -508 -20 -27 -5 -70 -13 -95 -17 -25 -4 -49 -10 -55
-14 -9 -8 -54 -13 -83 -11 -11 1 -12 55 -6 292 6 244 5 292 -7 300 -8 5 -16 8
-19 7 -3 -1 -54 -5 -115 -9z m-109 -1121 c-5 -480 -11 -938 -15 -1018 l-6
-145 -120 -12 c-296 -30 -386 -36 -394 -27 -5 5 -12 447 -15 983 -4 536 -10
986 -12 1001 -4 15 0 31 8 37 7 6 78 17 158 23 80 6 177 15 215 20 39 4 97 8
129 9 l59 1 -7 -872z m1077 347 c241 -46 394 -182 443 -392 14 -60 15 -110 5
-428 -19 -638 -21 -664 -40 -669 -9 -2 -81 -9 -161 -16 -80 -6 -183 -16 -229
-21 -56 -6 -87 -5 -91 1 -4 6 -5 39 -3 74 2 41 -1 67 -8 71 -6 4 -29 -11 -52
-33 -55 -54 -124 -86 -223 -106 -137 -27 -242 -15 -360 44 -251 123 -349 478
-196 712 49 75 78 104 152 151 158 99 426 105 563 11 50 -34 67 -26 67 28 0
88 -33 146 -95 172 -16 7 -63 18 -103 26 -87 16 -208 4 -365 -37 -54 -14 -100
-23 -103 -20 -3 3 -1 27 6 54 11 47 23 101 40 173 13 55 40 154 44 158 9 8
125 34 210 47 129 18 402 19 499 0z"/>
<path d="M5950 2561 c-19 -4 -51 -15 -70 -24 -95 -47 -123 -112 -80 -182 28
-45 70 -60 165 -59 68 0 89 5 139 30 100 49 123 135 56 202 -40 40 -114 52
-210 33z m60 -110 c9 -22 9 -34 0 -50 -15 -29 -26 -26 -38 8 -21 60 14 99 38
42z"/>
<path d="M12756 1649 c-14 -11 -26 -26 -26 -32 0 -8 4 -7 12 1 7 7 20 12 30
12 10 0 18 5 18 10 0 6 9 10 21 10 11 0 17 5 14 10 -10 16 -40 11 -69 -11z"/>
</g>
</svg>
